<?xml version="1.0" encoding="UTF-8" standalone="no"?>
<!DOCTYPE svg PUBLIC "-//W3C//DTD SVG 1.1//EN" "http://www.w3.org/Graphics/SVG/1.1/DTD/svg11.dtd">
<svg width="100%" height="100%" viewBox="0 0 248 248" version="1.1" xmlns="http://www.w3.org/2000/svg" xmlns:xlink="http://www.w3.org/1999/xlink" xml:space="preserve" xmlns:serif="http://www.serif.com/" style="fill-rule:evenodd;clip-rule:evenodd;stroke-linejoin:round;stroke-miterlimit:2;">
    <path d="M123.787,0.001C55.53,0.001 0,55.531 0,123.787C0,192.043 55.53,247.573 123.787,247.573C192.044,247.573 247.574,192.043 247.574,123.787C247.574,55.531 192.044,0.001 123.787,0.001ZM123.787,232.573C63.802,232.573 15,183.772 15,123.787C15,63.802 63.802,15.001 123.787,15.001C183.772,15.001 232.574,63.802 232.574,123.787C232.574,183.772 183.773,232.573 123.787,232.573Z" style="fill-rule:nonzero;"/>
    <path d="M133.047,123.786L175.363,65.357C177.793,62.002 177.043,57.313 173.688,54.883C170.332,52.454 165.645,53.203 163.214,56.558L123.787,111L84.357,56.559C81.927,53.203 77.237,52.454 73.883,54.884C70.529,57.314 69.779,62.003 72.208,65.358L114.525,123.787L72.208,182.217C69.778,185.572 70.528,190.261 73.883,192.691C75.213,193.654 76.751,194.117 78.277,194.117C80.599,194.117 82.89,193.041 84.357,191.016L123.787,136.574L163.217,191.016C164.684,193.041 166.974,194.117 169.297,194.117C170.822,194.117 172.361,193.654 173.69,192.691C177.045,190.261 177.795,185.572 175.365,182.217L133.047,123.786Z" style="fill-rule:nonzero;"/>
</svg>