<?xml version="1.0" encoding="UTF-8" standalone="no"?>
<!DOCTYPE svg PUBLIC "-//W3C//DTD SVG 1.1//EN" "http://www.w3.org/Graphics/SVG/1.1/DTD/svg11.dtd">
<svg width="100%" height="100%" viewBox="0 0 32 32" version="1.1" xmlns="http://www.w3.org/2000/svg" xmlns:xlink="http://www.w3.org/1999/xlink" xml:space="preserve" xmlns:serif="http://www.serif.com/" style="fill-rule:evenodd;clip-rule:evenodd;stroke-linejoin:round;stroke-miterlimit:2;">
    <path d="M32,8C32,3.585 28.415,0 24,0L8,0C3.585,0 0,3.585 0,8L0,24.009C0,28.424 3.585,32.008 8,32.008L24,32.008C28.415,32.008 32,28.424 32,24.009L32,8ZM22.702,21.292L16.383,26.09C16.275,26.172 16.148,26.213 16,26.213C15.852,26.213 15.725,26.172 15.617,26.09L9.298,21.292C9.19,21.21 9.136,21.111 9.136,20.997C9.136,20.883 9.19,20.784 9.298,20.702L10.712,19.634C10.819,19.552 10.947,19.511 11.095,19.511C11.242,19.511 11.37,19.552 11.478,19.634L16,23.072L20.522,19.634C20.63,19.552 20.758,19.511 20.905,19.511C21.053,19.511 21.181,19.552 21.288,19.634L22.702,20.702C22.81,20.784 22.864,20.883 22.864,20.997C22.864,21.111 22.81,21.21 22.702,21.292ZM22.702,10.708L16.383,5.91C16.275,5.828 16.148,5.787 16,5.787C15.852,5.787 15.725,5.828 15.617,5.91L9.298,10.708C9.19,10.79 9.136,10.889 9.136,11.003C9.136,11.117 9.19,11.216 9.298,11.298L10.712,12.366C10.819,12.448 10.947,12.489 11.095,12.489C11.242,12.489 11.37,12.448 11.478,12.366L16,8.928L20.522,12.366C20.63,12.448 20.758,12.489 20.905,12.489C21.053,12.489 21.181,12.448 21.288,12.366L22.702,11.298C22.81,11.216 22.864,11.117 22.864,11.003C22.864,10.889 22.81,10.79 22.702,10.708Z" style="fill:white;"/>
</svg>
